<svg viewBox="0 0 17 16" xmlns="http://www.w3.org/2000/svg"><g fill="#434343" fill-rule="evenodd" transform="translate(1)"><path d="m7 4.769c0 1.187-.976 2.148-2.182 2.148h-2.637c-1.204 0-2.18-.962-2.18-2.148v-2.536c0-1.187.976-2.148 2.18-2.148h2.637c1.206 0 2.182.962 2.182 2.148z"/><path d="m7 13.818c0 1.205-.976 2.182-2.182 2.182h-2.637c-1.204 0-2.18-.977-2.18-2.182v-2.637c0-1.205.976-2.182 2.18-2.182h2.637c1.206 0 2.182.977 2.182 2.182z"/><path d="m16 4.769c0 1.187-.976 2.148-2.182 2.148h-2.637c-1.204 0-2.18-.962-2.18-2.148v-2.536c0-1.187.976-2.148 2.18-2.148h2.637c1.206 0 2.182.962 2.182 2.148z"/><path d="m16 13.818c0 1.205-.976 2.182-2.182 2.182h-2.637c-1.204 0-2.18-.977-2.18-2.182v-2.637c0-1.205.976-2.182 2.18-2.182h2.637c1.206 0 2.182.977 2.182 2.182z"/></g></svg>